# xmcd
#
# Track frame offsets:
#	150
#	21387
#	32935
#	52117
#	67992
#	90250
#	106742
#	134937
#	147045
#	162460
#	181995
#	195537
#
# Disc length: 2767 seconds
#
# Revision: 0
# Processed by: cddbd v1.4PL0 Copyright (c) Steve Scherf et al.
# Submitted via: dBpowerAMP V4.0
#
DISCID=a90acd0c
DTITLE=Jude Taylor and His Burning Flames - Best of Zydeco
DYEAR=1993
DGENRE=Zydeco
TTITLE0=Revenge Lover
TTITLE1=Bon Temp Louisiana
TTITLE2=Cold Hearted Woman
TTITLE3=Hound Dog Roll
TTITLE4=Poor Boy Blues
TTITLE5=My Baby, She's Gone
TTITLE6=Strokin'
TTITLE7=La La Zydeco
TTITLE8=J.T.Boogie
TTITLE9=The Thrill Is Gone
TTITLE10=Bogalusa Boogie
TTITLE11=Everybody Zydeco
EXTD=Authentic Bayou Blues
EXTT0=
EXTT1=
EXTT2=
EXTT3=
EXTT4=
EXTT5=
EXTT6=
EXTT7=
EXTT8=
EXTT9=
EXTT10=
EXTT11=
PLAYORDER=
